REM DIRINDEX 1\2\4,1\2\5,1\2\6,1\3\7,1\3\8
REM DIRNAME cjc128,folder01,folder02,folder03,folder04,folder05,folder06,folder07
TITLE ""
FILE "036_Proficiency Test01.mp3" MP3
  TRACK 01 AUDIO
    TITLE "0:"
    INDEX 01 00:00:00
  TRACK 02 AUDIO
    TITLE "8:cjc128_3894"
    INDEX 01 00:00:23
  TRACK 03 AUDIO
    TITLE "0:"
    INDEX 01 00:02:32
  TRACK 04 AUDIO
    TITLE "8:cjc128_3895"
    INDEX 01 00:02:71
  TRACK 05 AUDIO
    TITLE "0:"
    INDEX 01 00:04:66
  TRACK 06 AUDIO
    TITLE "7:cjc128_3896"
    INDEX 01 00:05:46
  TRACK 07 AUDIO
    TITLE "0:"
    INDEX 01 00:07:74
  TRACK 08 AUDIO
    TITLE "8:cjc128_3897"
    INDEX 01 00:10:65
  TRACK 09 AUDIO
    TITLE "0:"
    INDEX 01 00:12:40
  TRACK 10 AUDIO
    TITLE "7:cjc128_3898"
    INDEX 01 00:13:24
  TRACK 11 AUDIO
    TITLE "0:"
    INDEX 01 00:16:48
  TRACK 12 AUDIO
    TITLE "8:cjc128_3899"
    INDEX 01 00:20:55
  TRACK 13 AUDIO
    TITLE "0:"
    INDEX 01 00:22:42
  TRACK 14 AUDIO
    TITLE "7:cjc128_3900"
    INDEX 01 00:23:32
  TRACK 15 AUDIO
    TITLE "0:"
    INDEX 01 00:27:30
  TRACK 16 AUDIO
    TITLE "8:cjc128_3901"
    INDEX 01 00:32:01
  TRACK 17 AUDIO
    TITLE "0:"
    INDEX 01 00:33:73
  TRACK 18 AUDIO
    TITLE "7:cjc128_3902"
    INDEX 01 00:34:59
  TRACK 19 AUDIO
    TITLE "0:"
    INDEX 01 00:39:05
  TRACK 20 AUDIO
    TITLE "8:cjc128_3903"
    INDEX 01 00:44:18
  TRACK 21 AUDIO
    TITLE "0:"
    INDEX 01 00:46:35
  TRACK 22 AUDIO
    TITLE "7:cjc128_3904"
    INDEX 01 00:47:21
  TRACK 23 AUDIO
    TITLE "0:"
    INDEX 01 00:50:31
  TRACK 24 AUDIO
    TITLE "8:cjc128_3905"
    INDEX 01 00:54:09
  TRACK 25 AUDIO
    TITLE "0:"
    INDEX 01 00:56:10
  TRACK 26 AUDIO
    TITLE "7:cjc128_3906"
    INDEX 01 00:56:72
  TRACK 27 AUDIO
    TITLE "0:"
    INDEX 01 00:59:67
  TRACK 28 AUDIO
    TITLE "8:cjc128_3907"
    INDEX 01 01:03:29
  TRACK 29 AUDIO
    TITLE "0:"
    INDEX 01 01:05:34
  TRACK 30 AUDIO
    TITLE "7:cjc128_3908"
    INDEX 01 01:06:30
  TRACK 31 AUDIO
    TITLE "0:"
    INDEX 01 01:09:44
  TRACK 32 AUDIO
    TITLE "8:cjc128_3909"
    INDEX 01 01:13:65
  TRACK 33 AUDIO
    TITLE "0:"
    INDEX 01 01:15:68
  TRACK 34 AUDIO
    TITLE "7:cjc128_3910"
    INDEX 01 01:16:71
  TRACK 35 AUDIO
    TITLE "0:"
    INDEX 01 01:19:52
  TRACK 36 AUDIO
    TITLE "8:cjc128_3911"
    INDEX 01 01:23:09
  TRACK 37 AUDIO
    TITLE "0:"
    INDEX 01 01:25:08
  TRACK 38 AUDIO
    TITLE "7:cjc128_3912"
    INDEX 01 01:25:64
  TRACK 39 AUDIO
    TITLE "0:"
    INDEX 01 01:28:74
  TRACK 40 AUDIO
    TITLE "8:cjc128_3913"
    INDEX 01 01:32:68
  TRACK 41 AUDIO
    TITLE "0:"
    INDEX 01 01:34:67
  TRACK 42 AUDIO
    TITLE "7:cjc128_3914"
    INDEX 01 01:35:53
  TRACK 43 AUDIO
    TITLE "0:"
    INDEX 01 01:39:31
